<svg version="1.1" id="Layer_1" xmlns="http://www.w3.org/2000/svg" xmlns:xlink="http://www.w3.org/1999/xlink" x="0px" y="0px"
	 width="100%" viewBox="0 0 1024 560" enable-background="new 0 0 1024 560" xml:space="preserve">
<path fill="#000000" opacity="1.000000" stroke="none" 
	d="
M523.780029,274.043640 
	C521.624878,264.905914 519.548828,256.175323 517.472717,247.444763 
	C517.168884,247.391769 516.864990,247.338760 516.561157,247.285767 
	C514.833862,254.249069 513.110474,261.213348 511.378174,268.175415 
	C509.048676,277.537598 506.634064,286.879578 504.413818,296.267517 
	C503.402985,300.541565 500.913574,302.411285 496.591827,302.318634 
	C491.962891,302.219421 487.334167,303.104401 485.432251,296.753265 
	C478.936401,275.061737 472.046936,253.488403 465.390900,231.844391 
	C463.916260,227.049255 465.185425,225.413666 470.157623,225.011871 
	C478.921906,224.303650 480.477722,225.435913 482.628967,233.964447 
	C486.611053,249.751251 490.613159,265.532990 495.513611,281.460083 
	C497.239807,274.193542 498.963470,266.926361 500.692841,259.660583 
	C502.926849,250.274582 505.101135,240.873703 507.426636,231.510406 
	C508.784668,226.042542 510.598938,224.962509 517.411133,225.000015 
	C523.784302,225.035095 525.850586,226.443405 527.156616,232.033569 
	C530.941345,248.232758 534.651428,264.449371 538.398438,280.657410 
	C538.508606,281.134003 538.703003,281.591187 539.145691,282.921356 
	C539.809753,280.989685 540.331360,279.745270 540.667664,278.452637 
	C544.647522,263.155609 548.568176,247.843140 552.573181,232.552734 
	C554.356628,225.744080 561.407349,222.542511 567.716431,225.554352 
	C570.899475,227.073898 569.979614,229.538910 569.206421,231.975739 
	C563.265808,250.698898 557.325317,269.422150 551.388489,288.146515 
	C550.835144,289.891571 550.335876,291.654205 549.761597,293.392181 
	C546.888245,302.088440 546.396362,302.193024 537.415405,302.395508 
	C532.431824,302.507904 530.086609,300.331635 529.041260,295.799652 
	C527.395508,288.664520 525.594421,281.565247 523.780029,274.043640 
z"/>
<path fill="#000000" opacity="1.000000" stroke="none" 
	d="
M433.107849,338.785736 
	C490.360840,358.849884 546.889954,357.262299 603.113342,336.190979 
	C604.982788,335.490356 606.878479,334.850769 608.788025,334.268524 
	C610.934998,333.613953 613.240234,333.170746 614.612976,335.489594 
	C616.236877,338.232880 614.079285,339.977753 612.245728,341.283722 
	C608.453918,343.984528 604.622131,346.735748 600.484070,348.828003 
	C530.601562,384.161560 463.923645,377.913330 400.302277,333.140747 
	C397.445496,331.130371 394.712830,328.927826 392.049255,326.665344 
	C390.687836,325.508942 388.971832,324.033112 390.395050,322.030212 
	C391.818024,320.027588 393.762390,321.215179 395.336578,322.044586 
	C406.549103,327.951691 418.053589,333.203491 429.913605,337.673187 
	C430.847046,338.024933 431.789032,338.353973 433.107849,338.785736 
z"/>
<path fill="#000000" opacity="1.000000" stroke="none" 
	d="
M460.496155,295.559326 
	C459.970306,296.228790 459.680054,296.640961 459.332672,296.997437 
	C452.184845,304.332825 449.317627,304.061035 443.543701,295.524078 
	C443.175751,294.980072 442.731659,294.487579 442.346161,294.000336 
	C440.258545,293.873169 439.465149,295.619812 438.203125,296.578400 
	C429.591858,303.119080 420.020874,305.426361 409.499786,302.769836 
	C399.898987,300.345673 393.940399,292.624054 393.670166,282.789246 
	C393.320190,270.050476 398.810211,261.293213 409.539368,257.995880 
	C417.769348,255.466599 426.193726,254.953339 434.726044,256.380646 
	C436.477966,256.673706 438.226685,257.549408 440.059113,256.840424 
	C443.393646,243.072052 438.053223,236.187149 424.231201,236.163101 
	C418.316193,236.152802 412.679779,237.387619 407.113129,239.213684 
	C404.800934,239.972183 402.309601,241.382370 400.585297,238.185074 
	C399.004730,235.254379 399.871338,229.381485 402.608337,228.255768 
	C417.049652,222.316086 431.830475,219.365036 446.383270,227.400452 
	C455.329773,232.340332 456.822540,241.538956 456.998138,250.800797 
	C457.184357,260.624298 457.099487,270.455292 456.977631,280.281067 
	C456.928650,284.233368 457.161987,287.923035 460.387817,290.787720 
	C461.850098,292.086273 461.827332,293.692078 460.496155,295.559326 
M416.713623,290.193420 
	C418.671875,290.471619 420.628448,290.976471 422.588654,290.990875 
	C434.370331,291.077576 441.502808,283.729126 440.809082,272.473541 
	C440.672791,270.262238 440.232666,268.633850 437.710907,268.157715 
	C431.296844,266.946564 424.860260,266.411896 418.537506,268.329285 
	C413.946198,269.721649 410.735504,272.744568 410.182404,277.802673 
	C409.616730,282.975647 410.850586,287.382874 416.713623,290.193420 
z"/>
<path fill="#000000" opacity="1.000000" stroke="none" 
	d="
M613.766907,236.184021 
	C608.083923,234.879715 602.774170,234.535889 597.635681,236.457687 
	C594.253052,237.722839 591.551147,239.874252 591.246033,243.971634 
	C590.935120,248.146973 593.322388,250.668777 596.710083,252.054886 
	C603.475708,254.823090 610.436584,257.109985 617.244934,259.778992 
	C623.870178,262.376221 629.095764,266.544128 631.240295,273.687042 
	C634.206970,283.568573 630.192871,294.117065 621.031860,298.911530 
	C607.241516,306.128784 593.055420,304.783539 578.986450,299.623840 
	C575.778442,298.447327 574.253418,289.794983 576.554688,287.317841 
	C578.340942,285.395111 580.210083,286.664032 582.045837,287.375183 
	C590.038147,290.471069 598.131165,292.912079 606.817200,290.633423 
	C608.409607,290.215668 610.029968,289.679810 611.447998,288.867767 
	C614.596680,287.064697 616.072449,284.264526 615.952576,280.570282 
	C615.840271,277.106964 613.896606,274.937012 610.983704,273.717773 
	C607.001770,272.051056 602.873657,270.734955 598.814575,269.250824 
	C595.380432,267.995178 591.842102,266.954468 588.548218,265.398743 
	C579.551819,261.149719 575.059875,254.197113 575.809204,245.312576 
	C576.615112,235.756775 581.067688,228.623306 590.501770,225.258224 
	C601.323486,221.398163 612.096924,222.034531 622.752136,225.814880 
	C627.051331,227.340164 629.077698,234.206497 626.596802,237.894028 
	C625.286682,239.841202 623.532166,239.514511 621.711060,238.884460 
	C619.198914,238.015305 616.688538,237.140640 613.766907,236.184021 
z"/>
<path fill="#000000" opacity="1.000000" stroke="none" 
	d="
M615.471436,327.386993 
	C608.739197,327.746490 602.431152,328.121338 596.123474,328.500519 
	C594.626770,328.590424 592.887512,328.908539 592.315613,327.066376 
	C591.769836,325.308868 593.173462,324.307556 594.507507,323.585419 
	C605.901428,317.417145 617.947998,315.349335 630.665161,318.184387 
	C634.455017,319.029205 636.303406,321.830994 635.906433,325.602325 
	C634.713135,336.939392 630.812195,347.241058 623.455383,356.079102 
	C622.079651,357.731812 620.483398,359.729004 618.029663,358.448486 
	C615.212708,356.978455 616.373962,354.614136 617.180725,352.346191 
	C618.906494,347.494537 620.689148,342.646362 622.059570,337.689270 
	C623.876953,331.115601 622.490540,329.038666 615.471436,327.386993 
z"/>
</svg>